<?xml version="1.0" encoding="UTF-8"?>
<svg id="a" data-name="Layer 1" xmlns="http://www.w3.org/2000/svg" viewBox="0 0 482.94 50.03">
  <defs>
    <style>
      .b {
        fill: #fff;
        stroke-width: 0px;
      }
    </style>
  </defs>
  <g>
    <path class="b" d="m8.85,1.01v47.94H.25V1.01h8.6Z"/>
    <path class="b" d="m9.1,49.21H0V.76h9.1v48.44Zm-8.6-.5h8.1V1.26H.5v47.44Z"/>
  </g>
  <g>
    <path class="b" d="m16.76,48.96V1.01h9.75c9.91,26.5,11.82,31.55,12.39,33.9h.07c-.41-5.76-.43-12.82-.43-20.67V1.01h7.67v47.94h-9.35C26.63,20.71,24.82,15.62,24.2,13.42h-.07c.35,5.91.36,12.97.36,21.56v13.98h-7.73Z"/>
    <path class="b" d="m46.47,49.21h-9.78l-.06-.17c-8.38-23.12-11.11-30.71-12.17-33.92.27,5.74.27,12.61.27,19.85v14.23h-8.23V.76h10.17l1.3,3.46c7.01,18.72,9.59,25.62,10.63,28.79-.28-5.15-.31-11.15-.31-18.78V.76h8.17v48.44Zm-9.42-.5h8.92V1.26h-7.17v12.98c0,8.59.03,15.09.42,20.66l.02.27h-.54l-.05-.19c-.55-2.23-2.37-7.12-11.15-30.57l-1.17-3.14h-9.33v47.44h7.23v-13.73c0-7.97,0-15.5-.36-21.54l-.02-.27h.53l.05.18c.62,2.18,2.39,7.15,12.61,35.36Z"/>
  </g>
  <g>
    <path class="b" d="m53.97,48.96V1.01h9.75c9.91,26.5,11.82,31.55,12.39,33.9h.07c-.41-5.76-.43-12.82-.43-20.67V1.01h7.67v47.94h-9.35c-10.24-28.25-12.06-33.34-12.68-35.54h-.07c.35,5.91.36,12.97.36,21.56v13.98h-7.73Z"/>
    <path class="b" d="m83.68,49.21h-9.78l-.06-.17c-8.38-23.12-11.11-30.71-12.17-33.92.27,5.74.27,12.61.27,19.85v14.23h-8.23V.76h10.17l1.3,3.46c7.01,18.72,9.59,25.62,10.63,28.79-.28-5.15-.31-11.15-.31-18.78V.76h8.17v48.44Zm-9.42-.5h8.92V1.26h-7.17v12.98c0,8.59.03,15.09.42,20.66l.02.27h-.54l-.05-.19c-.55-2.23-2.37-7.12-11.15-30.57l-1.17-3.14h-9.33v47.44h7.23v-13.73c0-7.97,0-15.5-.36-21.54l-.02-.27h.53l.05.18c.62,2.18,2.39,7.15,12.61,35.36Z"/>
  </g>
  <g>
    <path class="b" d="m120.66,24.62c0,17.53-4.77,25.16-15.82,25.16-10.32,0-15.36-7.52-15.36-25.26S95.35.25,105.24.25c10.45,0,15.43,7.72,15.43,24.37Zm-22.37-.18c0,11.38,1.73,18.14,6.76,18.14,5.3,0,6.81-6.27,6.81-18.12,0-11.14-1.61-16.94-6.82-16.94s-6.75,6.24-6.75,16.93Z"/>
    <path class="b" d="m104.84,50.03c-10.65,0-15.61-8.11-15.61-25.51,0-16.5,5.23-24.52,16-24.52s15.68,7.82,15.68,24.62c0,17.81-4.81,25.41-16.07,25.41Zm.39-49.53c-10.43,0-15.5,7.86-15.5,24.02,0,17.3,4.66,25.01,15.11,25.01s15.57-7.45,15.57-24.91c0-16.45-4.82-24.12-15.18-24.12Zm-.19,42.33c-4.85,0-7.01-5.67-7.01-18.39,0-12.04,2.09-17.18,7-17.18s7.07,4.98,7.07,17.19c0,11.03-1.2,18.37-7.06,18.37Zm0-35.07c-4.55,0-6.5,4.99-6.5,16.68s2.07,17.89,6.51,17.89c4.72,0,6.56-5.01,6.56-17.87,0-11.86-1.9-16.69-6.57-16.69Z"/>
  </g>
  <g>
    <path class="b" d="m134.22,48.96L122.32,1.01h9.25l4.39,20.34c1.39,6.38,2.71,13.48,3.29,18.49h.14c.58-4.87,2.33-12.04,3.68-18.31l4.25-20.52h8.98l-12.06,47.94h-10.01Z"/>
    <path class="b" d="m144.43,49.21h-10.4l-.05-.19L122,.76h9.77l4.44,20.54c1.42,6.51,2.53,12.65,3.12,17.13.52-3.52,1.51-7.96,2.46-12.27.35-1.58.7-3.16,1.03-4.69l4.29-20.71h9.51l-12.19,48.44Zm-10.01-.5h9.62L155.97,1.26h-8.46l-4.21,20.32c-.33,1.53-.68,3.11-1.03,4.69-1.08,4.88-2.21,9.92-2.64,13.6l-.03.22h-.59l-.03-.22c-.52-4.55-1.72-11.28-3.28-18.47l-4.35-20.14h-8.73l11.78,47.44Z"/>
  </g>
  <g>
    <path class="b" d="m164.24,36.89l-2.38,12.07h-8.6L164.36,1.01h11.14l11.22,47.94h-9.01l-2.39-12.07h-11.09Zm9.57-7.45c-1.79-9.18-3.22-15.88-3.97-20.46h-.2c-.58,4.41-2.1,11.62-3.87,20.46h8.05Z"/>
    <path class="b" d="m187.05,49.21h-9.53l-2.39-12.07h-10.68l-2.38,12.07h-9.12L164.17.76h11.54l.05.19,11.3,48.25Zm-9.12-.5h8.49L175.31,1.26h-10.75l-10.99,47.44h8.08l2.38-12.07h11.5l2.39,12.07Zm-3.82-19.02h-8.65l.06-.3c.32-1.61.64-3.17.94-4.67,1.37-6.8,2.45-12.18,2.93-15.78l.03-.22h.64l.03.21c.49,2.95,1.25,6.78,2.22,11.62.53,2.65,1.12,5.59,1.75,8.84l.06.3Zm-8.04-.5h7.44c-.61-3.13-1.18-5.97-1.69-8.54-.87-4.35-1.58-7.88-2.07-10.7-.53,3.58-1.54,8.62-2.8,14.87-.28,1.4-.58,2.86-.88,4.37Z"/>
  </g>
  <g>
    <path class="b" d="m193.29,8.53h-10.24V1.01h29.09v7.51h-10.24v40.43h-8.6V8.53Z"/>
    <path class="b" d="m202.14,49.21h-9.1V8.78h-10.24V.76h29.59v8.01h-10.24v40.43Zm-8.6-.5h8.1V8.28h10.24V1.26h-28.59v7.01h10.24v40.43Z"/>
  </g>
  <g>
    <path class="b" d="m224.85,1.01v47.94h-8.6V1.01h8.6Z"/>
    <path class="b" d="m225.1,49.21h-9.1V.76h9.1v48.44Zm-8.6-.5h8.1V1.26h-8.1v47.44Z"/>
  </g>
  <g>
    <path class="b" d="m262.25,24.62c0,17.53-4.76,25.16-15.82,25.16-10.32,0-15.36-7.52-15.36-25.26S236.94.25,246.83.25c10.45,0,15.43,7.72,15.43,24.37Zm-22.37-.18c0,11.38,1.73,18.14,6.76,18.14,5.3,0,6.81-6.27,6.81-18.12,0-11.14-1.61-16.94-6.82-16.94s-6.75,6.24-6.75,16.93Z"/>
    <path class="b" d="m246.44,50.03c-10.65,0-15.61-8.11-15.61-25.51,0-16.5,5.23-24.52,16-24.52s15.68,7.82,15.68,24.62c0,17.81-4.81,25.41-16.07,25.41Zm.39-49.53c-10.43,0-15.5,7.86-15.5,24.02,0,17.3,4.66,25.01,15.11,25.01s15.57-7.45,15.57-24.91c0-16.45-4.82-24.12-15.18-24.12Zm-.19,42.33c-4.85,0-7.01-5.67-7.01-18.39,0-12.04,2.09-17.18,7-17.18s7.07,4.98,7.07,17.19c0,11.03-1.2,18.37-7.06,18.37Zm0-35.07c-4.55,0-6.5,4.99-6.5,16.68s2.07,17.89,6.51,17.89c4.72,0,6.56-5.01,6.56-17.87,0-11.86-1.9-16.69-6.57-16.69Z"/>
  </g>
  <g>
    <path class="b" d="m268.41,48.96V1.01h9.75c9.91,26.5,11.82,31.55,12.39,33.9h.07c-.41-5.76-.42-12.82-.42-20.67V1.01h7.67v47.94h-9.35c-10.24-28.25-12.06-33.34-12.68-35.54h-.07c.35,5.91.36,12.97.36,21.56v13.98h-7.73Z"/>
    <path class="b" d="m298.12,49.21h-9.78l-.06-.17c-8.38-23.11-11.11-30.7-12.17-33.92.27,5.73.27,12.6.27,19.85v14.23h-8.23V.76h10.17l1.33,3.57c6.98,18.64,9.55,25.52,10.59,28.69-.28-5.15-.31-11.14-.31-18.78V.76h8.17v48.44Zm-9.42-.5h8.92V1.26h-7.17v12.98c0,8.59.03,15.1.42,20.66l.02.27h-.54l-.05-.19c-.55-2.23-2.37-7.1-11.11-30.47l-1.21-3.24h-9.33v47.44h7.23v-13.73c0-7.98,0-15.51-.36-21.54l-.02-.27h.53l.05.18c.62,2.18,2.39,7.14,12.61,35.36Z"/>
  </g>
  <g>
    <path class="b" d="m318.22,1.01h8.6v18.95h11.55V1.01h8.6v47.94h-8.6v-21.54h-11.55v21.54h-8.6V1.01Z"/>
    <path class="b" d="m347.23,49.21h-9.1v-21.54h-11.05v21.54h-9.1V.76h9.1v18.95h11.05V.76h9.1v48.44Zm-8.6-.5h8.1V1.26h-8.1v18.95h-12.05V1.26h-8.1v47.44h8.1v-21.54h12.05v21.54Z"/>
  </g>
  <g>
    <path class="b" d="m361.95,36.89l-2.38,12.07h-8.6l11.1-47.94h11.14l11.22,47.94h-9.01l-2.39-12.07h-11.09Zm9.57-7.45c-1.79-9.18-3.22-15.88-3.97-20.46h-.2c-.58,4.41-2.1,11.62-3.87,20.46h8.05Z"/>
    <path class="b" d="m384.76,49.21h-9.53l-2.39-12.07h-10.68l-2.38,12.07h-9.12l.07-.31L361.88.76h11.54l.04.19,11.3,48.25Zm-9.12-.5h8.49l-11.11-47.44h-10.75l-10.99,47.44h8.08l2.38-12.07h11.5l2.39,12.07Zm-3.82-19.02h-8.65l.06-.3c.32-1.62.64-3.19.94-4.69,1.37-6.79,2.45-12.16,2.92-15.76l.03-.22h.63l.04.21c.49,2.96,1.25,6.79,2.22,11.64.53,2.64,1.12,5.57,1.75,8.81l.06.3Zm-8.04-.5h7.44c-.61-3.12-1.18-5.95-1.69-8.51-.87-4.36-1.58-7.9-2.07-10.72-.53,3.58-1.54,8.61-2.8,14.85-.28,1.41-.58,2.88-.88,4.39Z"/>
  </g>
  <g>
    <path class="b" d="m416.05,35c-.21,2.42-1.13,14.78-14.43,14.78s-15.2-11.98-15.2-24.86c0-15.53,4.55-24.67,15.71-24.67,12.71,0,13.7,10.9,13.9,14.74h-8.49c-.13-1.63-.25-7.46-5.54-7.46s-6.7,6.6-6.7,17.57c0,9.04.9,17.53,6.46,17.53,5.12,0,5.53-5.79,5.74-7.63h8.55Z"/>
    <path class="b" d="m401.61,50.03c-14.25,0-15.45-12.96-15.45-25.11,0-16.77,5.22-24.92,15.96-24.92,6.1,0,13.51,2.6,14.15,14.98v.26s-8.97,0-8.97,0l-.04-.53c-.14-1.89-.5-6.93-5.27-6.93-5.35,0-6.45,6.92-6.45,17.32,0,8.54.74,17.28,6.21,17.28,4.67,0,5.23-5.01,5.46-7.15l.05-.48h9.05l-.03.36c-.84,9.62-6.05,14.92-14.68,14.92Zm.51-49.53c-10.4,0-15.46,7.99-15.46,24.42,0,11.91,1.16,24.61,14.95,24.61,8.4,0,13.29-4.94,14.16-14.28h-8.06v.03c-.23,2.08-.84,7.59-5.96,7.59-5.92,0-6.71-8.99-6.71-17.78,0-10.7,1.18-17.82,6.95-17.82,5.24,0,5.62,5.37,5.76,7.39v.07h8c-.56-9.45-5.15-14.24-13.63-14.24Z"/>
  </g>
  <g>
    <path class="b" d="m420.84,1.01h8.47v21.49c2.66-4.37,8.79-15.27,12.65-21.49h9.9l-12.37,18.74,12.62,29.21h-9.54l-8.94-22.04-4.32,6.07v15.97h-8.47V1.01Z"/>
    <path class="b" d="m452.48,49.21h-10.09l-8.83-21.78-4.01,5.63v16.14h-8.97V.76h8.97v20.84c1.07-1.79,2.53-4.31,4.19-7.17,2.68-4.64,5.73-9.89,8-13.55l.07-.12h10.5l-12.55,19.01,12.71,29.43Zm-9.75-.5h8.99l-12.52-28.98.07-.11,12.11-18.35h-9.29c-2.26,3.65-5.26,8.84-7.92,13.42-1.91,3.3-3.56,6.15-4.66,7.95l-.46.76V1.26h-7.97v47.44h7.97v-15.8l.05-.07,4.58-6.44,9.04,22.31Z"/>
  </g>
  <g>
    <path class="b" d="m461.76,35.53c.42,3.98,2.01,7.48,6.4,7.48s5.79-2.65,5.79-6.21c0-3.94-1.94-6.23-8-9.12-8.21-3.9-11.42-7.35-11.42-14.47,0-7.69,4.94-12.94,13.61-12.94,10.79,0,13.45,7.3,13.59,13.54h-8.41c-.28-2.74-.98-6.77-5.33-6.77-3.4,0-4.92,2.2-4.92,5.46,0,3.45,1.54,5.07,7.16,7.68,8.6,3.98,12.46,7.84,12.46,15.86,0,7.53-4.66,13.75-14.79,13.75-11.02,0-14.38-7.06-14.68-14.24h8.54Z"/>
    <path class="b" d="m467.9,50.02c-12.47,0-14.71-9.07-14.93-14.48v-.26s9.02,0,9.02,0l.02.22c.5,4.81,2.57,7.25,6.15,7.25,4.58,0,5.54-3.24,5.54-5.96,0-3.9-1.91-6.06-7.86-8.9-8.65-4.11-11.57-7.82-11.57-14.7C454.28,5.06,459.59,0,468.14,0c11.77,0,13.72,8.64,13.84,13.78v.26s-8.89,0-8.89,0l-.02-.23c-.33-3.24-1.18-6.55-5.08-6.55-3.01,0-4.67,1.85-4.67,5.21s1.44,4.86,7.01,7.45c7.99,3.69,12.61,7.51,12.61,16.09,0,6.77-3.95,14-15.04,14Zm-14.42-14.24c.33,6.33,3.13,13.74,14.42,13.74s14.54-6.98,14.54-13.5c0-7.43-3.11-11.38-12.32-15.63-5.73-2.66-7.3-4.36-7.3-7.9s1.83-5.71,5.17-5.71c4.7,0,5.32,4.57,5.55,6.77h7.93c-.2-6.01-2.71-13.04-13.33-13.04-8.24,0-13.36,4.86-13.36,12.69,0,6.73,2.74,10.19,11.28,14.25,6.09,2.91,8.14,5.27,8.14,9.35s-2.09,6.46-6.04,6.46-6.04-2.52-6.62-7.48h-8.06Z"/>
  </g>
</svg>