<svg id="Group_305" data-name="Group 305" xmlns="http://www.w3.org/2000/svg" width="1917.748" height="461.983" viewBox="0 0 1917.748 461.983">
  <g id="Group_303" data-name="Group 303" transform="translate(0 0)">
    <path id="Path_327" data-name="Path 327" d="M45.573,347.641c-28.267-48.96-42.4-73.44-36.05-97.14s30.533-37.661,78.9-65.587L296.293,64.9l15.323,26.541c20.943,36.274,31.415,54.411,26.653,72.187s-22.9,28.246-59.175,49.19L45.573,347.641Z" transform="translate(-2.462 114.341)" fill="#fff"/>
    <path id="Path_328" data-name="Path 328" d="M33.8,256.329C12.857,220.055,2.386,201.918,7.148,184.143s22.9-28.246,59.174-49.189L299.844.13l15.323,26.541c20.943,36.274,31.415,54.411,26.652,72.186s-22.9,28.246-59.175,49.189L49.124,282.871Z" transform="translate(-6.013 -0.13)" fill="#fff"/>
  </g>
  <g id="Group_304" data-name="Group 304" transform="translate(439.975 66.057)">
    <path id="Path_329" data-name="Path 329" d="M375.561,100.306C369.7,67.67,343.528,25.989,274.383,25.989c-53.131,0-99.227,36.962-99.227,89.652,0,41.287,28.518,72.744,75.4,81.788l37.894,7.078c18.359,3.539,29.688,13.762,29.688,27.919,0,17.3-14.844,29.1-39.064,29.1-37.894,0-55.082-22.413-57.426-47.971L165,227.313c3.907,39.32,36.72,89.257,113.287,89.257,66.021,0,102.351-44.433,102.351-88.078,0-39.714-27.345-73.924-80.082-83.754l-37.113-7.078C244.3,134.122,236.1,124.292,236.1,110.923c0-15.335,14.844-29.884,37.891-29.884,33.6,0,44.145,22.02,46.1,35Z" transform="translate(-165 -20.485)" fill="#fff"/>
    <path id="Path_330" data-name="Path 330" d="M316.471,314.189V118.764h-59.38V314.189ZM252.013,59c0,19.267,15.625,35,34.376,35a35,35,0,1,0,0-69.991C267.638,24,252.013,39.728,252.013,59Z" transform="translate(-11.216 -24)" fill="#fff"/>
    <path id="Path_331" data-name="Path 331" d="M350.657,257.435V144.978c0-17.695,11.33-33.816,32.032-33.816,21.486,0,31.252,14.549,31.252,33.03V257.435h58.6V144.584c0-17.3,11.327-33.423,32.422-33.423s30.862,14.549,30.862,33.03V257.435H593.25V130.822c0-53.083-35.159-74.71-71.88-74.71-26.174,0-44.925,8.651-60.16,30.67-9.766-19.267-29.688-30.67-57.426-30.67-21.1,0-46.1,11.01-55.862,28.311V62.01H291.278V257.435Z" transform="translate(58.179 32.754)" fill="#fff"/>
    <path id="Path_332" data-name="Path 332" d="M475.072,331.392V241.348c8.985,11.009,27.737,19.659,52.737,19.659,54.3,0,92.585-42.861,92.585-102.627,0-58.588-33.986-101.842-90.241-101.842-27.735,0-48.83,12.19-57.033,24.772V61.257H415.7V331.392Zm87.116-172.619c0,32.635-20.706,48.758-44.145,48.758-23.047,0-43.752-16.516-43.752-48.758,0-32.637,20.705-48.365,43.752-48.365C541.482,110.408,562.188,126.136,562.188,158.773Z" transform="translate(278.07 33.507)" fill="#fff"/>
    <path id="Path_333" data-name="Path 333" d="M560.062,310.673V25.989H500.685V310.673Z" transform="translate(428.279 -20.485)" fill="#fff"/>
    <path id="Path_334" data-name="Path 334" d="M600.875,314.189V118.764H541.5V314.189ZM536.418,59c0,19.267,15.624,35,34.376,35a35,35,0,1,0,0-69.991C552.042,24,536.418,39.728,536.418,59Z" transform="translate(491.432 -24)" fill="#fff"/>
    <path id="Path_335" data-name="Path 335" d="M700.207,167.588V117.257H658.019V102.315c0-21.626,14.844-26.345,25.391-26.345a66.245,66.245,0,0,1,17.58,1.966V29.178c-5.472-2.752-16.018-4.325-28.128-4.325-47.269,0-74.224,30.67-74.224,75.5v16.908H567.778v50.331h30.861V312.682h59.38V167.588Z" transform="translate(546.856 -22.495)" fill="#fff"/>
    <path id="Path_336" data-name="Path 336" d="M719.673,328.772,839.212,58.243H776.318L733.347,162.837,686.077,58.243H619.666l81.645,169.08L657.169,328.772Z" transform="translate(638.561 36.517)" fill="#fff"/>
  </g>
</svg>
