<svg width="82" height="41" viewBox="0 0 82 41" fill="none" xmlns="http://www.w3.org/2000/svg">
<g clip-path="url(#clip0_525_432)">
<path d="M20.2233 20.6604L33.3573 13.0288C36.4398 11.247 37.512 7.27994 35.7362 4.15337C33.9604 1.02679 30.0068 -0.0154029 26.8908 1.76641L4.17432 14.9115L20.2233 20.6604Z" fill="white" fill-opacity="0.7"/>
<path d="M30.1074 40.2238C32.3522 40.2238 34.5301 39.0471 35.7028 36.9627C37.4785 33.8697 36.4399 29.9027 33.3239 28.0873L10.6074 14.9422C7.5249 13.1604 3.57128 14.2026 1.762 17.3291C-0.0137711 20.4221 1.02489 24.3892 4.14087 26.2046L26.8574 39.3497C27.8961 39.9212 29.0352 40.2238 30.1074 40.2238Z" fill="white"/>
<path d="M52.7236 40.2298C53.8293 40.2298 54.935 39.9609 55.9401 39.3557L78.6566 26.2106L62.8422 20.3945L49.5071 28.1269C46.4246 29.9087 45.3525 33.8758 47.1283 37.0024C48.3009 39.0531 50.4788 40.2298 52.7236 40.2298Z" fill="white" fill-opacity="0.7"/>
<path d="M75.4064 27.0495C77.6513 27.0495 79.8291 25.8728 81.0018 23.8221C82.7776 20.7291 81.7389 16.7621 78.6229 14.9466L55.9399 1.80157C52.8574 0.0197535 48.9038 1.06195 47.0945 4.18852C45.3187 7.28148 46.3574 11.2485 49.4734 13.064L72.1899 26.209C73.1951 26.7806 74.3007 27.0495 75.4064 27.0495Z" fill="white"/>
</g>
<defs>
<clipPath id="clip0_525_432">
<rect width="80.9687" height="39.3276" fill="white" transform="translate(0.897461 0.896484)"/>
</clipPath>
</defs>
</svg>
